<svg width="177" height="35" viewBox="0 0 177 35" fill="none" xmlns="http://www.w3.org/2000/svg">
<path d="M0.00723499 17.4891L21.3622 10.7858C22.3177 10.4818 23.3963 10.9812 23.4036 11.7269L23.4832 16.9679L0 24.2792V17.4891H0.00723499Z" fill="black"/>
<path d="M0.00732422 7.70219L21.7315 0.883098C22.5133 0.636973 23.3964 1.04236 23.4037 1.65767L23.4905 7.18101L0.00732422 14.4923V7.70219Z" fill="black"/>
<path d="M13.3487 27.6166L0 23.4614V28.9486C0 29.7449 0.658744 30.4615 1.6722 30.78L13.3487 34.4429V27.6166Z" fill="black"/>
<path d="M39.4163 24.8107H42.4928V19.3164H50.2892V16.58H42.4928V13.3297H51.6646V10.4414H39.4163V24.8107Z" fill="black"/>
<path d="M66.4971 12.2803C65.8167 11.6361 64.9842 11.1293 64.0359 10.7818C63.0876 10.4271 62.0235 10.2534 60.8869 10.2534C59.7504 10.2534 58.6791 10.4344 57.7308 10.7818C56.7825 11.1366 55.9572 11.6361 55.2695 12.2803C54.5891 12.9246 54.0534 13.7064 53.6769 14.604C53.3005 15.5017 53.1123 16.5006 53.1123 17.5792C53.1123 18.6579 53.3005 19.6713 53.6769 20.5762C54.0534 21.4811 54.5891 22.2774 55.2695 22.9289C55.95 23.5804 56.7752 24.0943 57.7308 24.4563C58.6791 24.8182 59.7432 24.9992 60.8942 24.9992C62.0452 24.9992 63.1021 24.8182 64.0504 24.4563C64.9987 24.0943 65.8312 23.5804 66.5116 22.9289C67.1921 22.2774 67.7278 21.4811 68.1042 20.5762C68.4806 19.6713 68.6688 18.6651 68.6688 17.5792C68.6688 16.4934 68.4806 15.5017 68.1042 14.604C67.7278 13.7064 67.1921 12.9246 66.5116 12.2803H66.5044H66.4971ZM60.8797 22.0819C60.1993 22.0819 59.5695 21.9733 58.9976 21.7634C58.4257 21.5535 57.9262 21.2494 57.5064 20.8585C57.0937 20.4676 56.7607 19.9971 56.5291 19.4469C56.2975 18.8968 56.1744 18.2742 56.1744 17.5792C56.1744 16.8843 56.2902 16.269 56.5291 15.7188C56.7607 15.1759 57.0937 14.7126 57.5064 14.3362C57.9262 13.9598 58.4257 13.663 58.9976 13.4675C59.5695 13.2648 60.2065 13.1635 60.8869 13.1635C61.5674 13.1635 62.1972 13.2648 62.7763 13.4675C63.3482 13.663 63.8477 13.9598 64.2603 14.3362C64.6729 14.7126 64.9987 15.1759 65.2376 15.7188C65.4765 16.2618 65.5923 16.8843 65.5923 17.5792C65.5923 18.2742 65.4765 18.8968 65.2376 19.4469C64.9987 19.9971 64.6729 20.4749 64.2531 20.8585C63.8405 21.2494 63.341 21.5535 62.7691 21.7634C62.1972 21.9733 61.5602 22.0819 60.8869 22.0819H60.8797Z" fill="black"/>
<path d="M82.6402 19.5335C83.0311 19.215 83.3569 18.8458 83.6103 18.4332C83.8709 18.0278 84.0591 17.5718 84.1821 17.0868C84.3052 16.6018 84.3631 16.0878 84.3631 15.5594C84.3631 14.7703 84.24 14.0464 83.9867 13.4166C83.7333 12.7796 83.3497 12.2367 82.8357 11.7878C82.329 11.3463 81.6775 11.0133 80.9101 10.7816C80.15 10.5572 79.2452 10.4414 78.21 10.4414H71.2678V24.8107H74.3444V20.8366H78.2027L80.7002 24.8107H84.4572L81.5037 20.2357C81.9308 20.0403 82.3145 19.8086 82.6475 19.5408L82.6402 19.5335ZM81.149 15.5521C81.149 15.9213 81.0911 16.2615 80.9753 16.5583C80.8594 16.8551 80.6857 17.1012 80.4541 17.3039C80.2152 17.5139 79.9184 17.6732 79.5637 17.789C79.2017 17.9048 78.7674 17.97 78.2824 17.97H74.3444V13.3008H78.2824C79.2596 13.3008 79.9908 13.5035 80.4613 13.8944C80.9246 14.2853 81.149 14.821 81.149 15.5449V15.5521Z" fill="black"/>
<path d="M103.923 10.4345L100.245 19.628L99.7747 21.2278L99.1594 19.6425L97.8419 16.3632L100.31 10.4272H97.118L96.3362 12.7655L95.4965 10.4272H92.3041L94.7726 16.3632L93.4696 19.5918L92.9774 21.235L92.3403 19.5773L88.6919 10.4345H85.333L91.3631 24.8039H94.2731L95.5255 21.9083L96.3073 19.7221L97.0891 21.9155L98.3197 24.8039H101.237L107.26 10.4345H103.901H103.923Z" fill="black"/>
<path d="M136.078 19.5335C136.469 19.215 136.795 18.8458 137.048 18.4332C137.309 18.0278 137.497 17.5718 137.62 17.0868C137.743 16.6018 137.801 16.0878 137.801 15.5594C137.801 14.7703 137.678 14.0464 137.425 13.4166C137.171 12.7796 136.788 12.2367 136.274 11.7878C135.767 11.3463 135.115 11.0133 134.348 10.7816C133.588 10.5572 132.683 10.4414 131.648 10.4414H124.706V24.8107H127.782V20.8366H131.641L134.138 24.8107H137.895L134.942 20.2357C135.369 20.0403 135.752 19.8086 136.085 19.5408L136.078 19.5335ZM134.587 15.5521C134.587 15.9213 134.529 16.2615 134.413 16.5583C134.297 16.8551 134.124 17.1012 133.892 17.3039C133.653 17.5139 133.356 17.6732 133.002 17.789C132.64 17.9048 132.205 17.97 131.72 17.97H127.782V13.3008H131.72C132.698 13.3008 133.429 13.5035 133.899 13.8944C134.363 14.2853 134.587 14.821 134.587 15.5449V15.5521Z" fill="black"/>
<path d="M152.091 12.3452C151.389 11.7299 150.491 11.2521 149.42 10.9263C148.363 10.6006 147.096 10.4341 145.663 10.4341H140.61V24.8035H145.684C147.118 24.8107 148.385 24.6297 149.441 24.2677C150.506 23.9058 151.403 23.3991 152.105 22.7548C152.808 22.1106 153.343 21.3287 153.683 20.4456C154.024 19.5624 154.197 18.5924 154.197 17.5572C154.197 16.4714 154.024 15.4724 153.676 14.5965C153.329 13.7133 152.793 12.9532 152.084 12.3379L152.091 12.3452ZM146.329 21.9513H143.686V13.308H146.329C147.11 13.308 147.798 13.4093 148.385 13.612C148.956 13.8075 149.449 14.097 149.832 14.4589C150.209 14.8209 150.506 15.2697 150.694 15.7837C150.889 16.3049 150.983 16.913 150.983 17.5645C150.983 18.216 150.882 18.8458 150.694 19.3887C150.506 19.9244 150.209 20.3877 149.832 20.7641C149.449 21.1405 148.964 21.4373 148.385 21.6472C147.798 21.8572 147.11 21.9585 146.336 21.9585L146.329 21.9513Z" fill="black"/>
<path d="M159.945 10.2534H156.854V24.6228H159.945V10.2534Z" fill="black"/>
<path d="M173.931 10.2534V14.6837L165.903 10.2534H162.971V24.6228H166.04V13.815L173.924 18.1367V24.6228H177V10.2534H173.924H173.931Z" fill="black"/>
<path d="M113.442 10.4341L107.035 24.8035H110.293L115.02 14.0536L119.892 24.8035H123.142L116.54 10.4341H113.442Z" fill="black"/>
</svg>
